<svg xmlns="http://www.w3.org/2000/svg" viewBox="0 0 512 512" width="512" height="512">
  <defs>
    <radialGradient id="bg" cx="50%" cy="38%" r="75%">
      <stop offset="0%" stop-color="#fff5fa"/>
      <stop offset="100%" stop-color="#ffe1ef"/>
    </radialGradient>
  </defs>
  <rect width="512" height="512" rx="112" fill="url(#bg)"/>
  <g>
<ellipse cx="256" cy="168" rx="48" ry="86" fill="#f9a8cd" fill-opacity="1" transform="rotate(0.00 256 256)"/>
<ellipse cx="256" cy="168" rx="48" ry="86" fill="#f9a8cd" fill-opacity="1" transform="rotate(32.73 256 256)"/>
<ellipse cx="256" cy="168" rx="48" ry="86" fill="#f9a8cd" fill-opacity="1" transform="rotate(65.45 256 256)"/>
<ellipse cx="256" cy="168" rx="48" ry="86" fill="#f9a8cd" fill-opacity="1" transform="rotate(98.18 256 256)"/>
<ellipse cx="256" cy="168" rx="48" ry="86" fill="#f9a8cd" fill-opacity="1" transform="rotate(130.91 256 256)"/>
<ellipse cx="256" cy="168" rx="48" ry="86" fill="#f9a8cd" fill-opacity="1" transform="rotate(163.64 256 256)"/>
<ellipse cx="256" cy="168" rx="48" ry="86" fill="#f9a8cd" fill-opacity="1" transform="rotate(196.36 256 256)"/>
<ellipse cx="256" cy="168" rx="48" ry="86" fill="#f9a8cd" fill-opacity="1" transform="rotate(229.09 256 256)"/>
<ellipse cx="256" cy="168" rx="48" ry="86" fill="#f9a8cd" fill-opacity="1" transform="rotate(261.82 256 256)"/>
<ellipse cx="256" cy="168" rx="48" ry="86" fill="#f9a8cd" fill-opacity="1" transform="rotate(294.55 256 256)"/>
<ellipse cx="256" cy="168" rx="48" ry="86" fill="#f9a8cd" fill-opacity="1" transform="rotate(327.27 256 256)"/>

<ellipse cx="256" cy="190" rx="42" ry="70" fill="#f06aa6" fill-opacity="1" transform="rotate(16.00 256 256)"/>
<ellipse cx="256" cy="190" rx="42" ry="70" fill="#f06aa6" fill-opacity="1" transform="rotate(48.73 256 256)"/>
<ellipse cx="256" cy="190" rx="42" ry="70" fill="#f06aa6" fill-opacity="1" transform="rotate(81.45 256 256)"/>
<ellipse cx="256" cy="190" rx="42" ry="70" fill="#f06aa6" fill-opacity="1" transform="rotate(114.18 256 256)"/>
<ellipse cx="256" cy="190" rx="42" ry="70" fill="#f06aa6" fill-opacity="1" transform="rotate(146.91 256 256)"/>
<ellipse cx="256" cy="190" rx="42" ry="70" fill="#f06aa6" fill-opacity="1" transform="rotate(179.64 256 256)"/>
<ellipse cx="256" cy="190" rx="42" ry="70" fill="#f06aa6" fill-opacity="1" transform="rotate(212.36 256 256)"/>
<ellipse cx="256" cy="190" rx="42" ry="70" fill="#f06aa6" fill-opacity="1" transform="rotate(245.09 256 256)"/>
<ellipse cx="256" cy="190" rx="42" ry="70" fill="#f06aa6" fill-opacity="1" transform="rotate(277.82 256 256)"/>
<ellipse cx="256" cy="190" rx="42" ry="70" fill="#f06aa6" fill-opacity="1" transform="rotate(310.55 256 256)"/>
<ellipse cx="256" cy="190" rx="42" ry="70" fill="#f06aa6" fill-opacity="1" transform="rotate(343.27 256 256)"/>

<ellipse cx="256" cy="208" rx="34" ry="54" fill="#ea4d92" fill-opacity="1" transform="rotate(10.00 256 256)"/>
<ellipse cx="256" cy="208" rx="34" ry="54" fill="#ea4d92" fill-opacity="1" transform="rotate(50.00 256 256)"/>
<ellipse cx="256" cy="208" rx="34" ry="54" fill="#ea4d92" fill-opacity="1" transform="rotate(90.00 256 256)"/>
<ellipse cx="256" cy="208" rx="34" ry="54" fill="#ea4d92" fill-opacity="1" transform="rotate(130.00 256 256)"/>
<ellipse cx="256" cy="208" rx="34" ry="54" fill="#ea4d92" fill-opacity="1" transform="rotate(170.00 256 256)"/>
<ellipse cx="256" cy="208" rx="34" ry="54" fill="#ea4d92" fill-opacity="1" transform="rotate(210.00 256 256)"/>
<ellipse cx="256" cy="208" rx="34" ry="54" fill="#ea4d92" fill-opacity="1" transform="rotate(250.00 256 256)"/>
<ellipse cx="256" cy="208" rx="34" ry="54" fill="#ea4d92" fill-opacity="1" transform="rotate(290.00 256 256)"/>
<ellipse cx="256" cy="208" rx="34" ry="54" fill="#ea4d92" fill-opacity="1" transform="rotate(330.00 256 256)"/>

<ellipse cx="256" cy="224" rx="25" ry="40" fill="#d6337c" fill-opacity="1" transform="rotate(22.00 256 256)"/>
<ellipse cx="256" cy="224" rx="25" ry="40" fill="#d6337c" fill-opacity="1" transform="rotate(73.43 256 256)"/>
<ellipse cx="256" cy="224" rx="25" ry="40" fill="#d6337c" fill-opacity="1" transform="rotate(124.86 256 256)"/>
<ellipse cx="256" cy="224" rx="25" ry="40" fill="#d6337c" fill-opacity="1" transform="rotate(176.29 256 256)"/>
<ellipse cx="256" cy="224" rx="25" ry="40" fill="#d6337c" fill-opacity="1" transform="rotate(227.71 256 256)"/>
<ellipse cx="256" cy="224" rx="25" ry="40" fill="#d6337c" fill-opacity="1" transform="rotate(279.14 256 256)"/>
<ellipse cx="256" cy="224" rx="25" ry="40" fill="#d6337c" fill-opacity="1" transform="rotate(330.57 256 256)"/>

<ellipse cx="256" cy="236" rx="17" ry="27" fill="#c2255c" fill-opacity="1" transform="rotate(0.00 256 256)"/>
<ellipse cx="256" cy="236" rx="17" ry="27" fill="#c2255c" fill-opacity="1" transform="rotate(60.00 256 256)"/>
<ellipse cx="256" cy="236" rx="17" ry="27" fill="#c2255c" fill-opacity="1" transform="rotate(120.00 256 256)"/>
<ellipse cx="256" cy="236" rx="17" ry="27" fill="#c2255c" fill-opacity="1" transform="rotate(180.00 256 256)"/>
<ellipse cx="256" cy="236" rx="17" ry="27" fill="#c2255c" fill-opacity="1" transform="rotate(240.00 256 256)"/>
<ellipse cx="256" cy="236" rx="17" ry="27" fill="#c2255c" fill-opacity="1" transform="rotate(300.00 256 256)"/>

<circle cx="269.0" cy="256.0" r="4.5" fill="#ffd43b"/>
<circle cx="264.1" cy="266.2" r="4.5" fill="#ffd43b"/>
<circle cx="253.1" cy="268.7" r="4.5" fill="#ffd43b"/>
<circle cx="244.3" cy="261.6" r="4.5" fill="#ffd43b"/>
<circle cx="244.3" cy="250.4" r="4.5" fill="#ffd43b"/>
<circle cx="253.1" cy="243.3" r="4.5" fill="#ffd43b"/>
<circle cx="264.1" cy="245.8" r="4.5" fill="#ffd43b"/>
<circle cx="256" cy="256" r="5" fill="#fcc419"/>

  </g>
</svg>
